<?xml version="1.0" standalone="no"?><!DOCTYPE svg PUBLIC "-//W3C//DTD SVG 1.1//EN" "http://www.w3.org/Graphics/SVG/1.1/DTD/svg11.dtd"><svg height="181" node-id="1" sillyvg="true" template-height="181" template-width="185" version="1.1" viewBox="0 0 185 181" width="185" xmlns="http://www.w3.org/2000/svg" xmlns:xlink="http://www.w3.org/1999/xlink"><defs node-id="12"></defs><g node-id="14"><g node-id="15"><path d="M 169.60 92.90 L 169.80 89.50 L 170.50 86.30 L 171.60 83.30 L 173.10 80.50 L 174.90 77.90 L 177.00 75.60 L 179.40 73.60 L 182.10 71.90 L 185.00 70.50 L 182.70 63.00 L 179.60 54.20 L 176.00 45.60 L 172.50 38.70 L 163.80 42.40 L 158.20 43.90 L 155.70 44.20 L 153.10 44.00 L 150.80 43.30 L 148.50 41.90 L 146.30 39.30 L 144.50 36.60 L 143.10 33.70 L 142.20 30.70 L 141.60 27.60 L 141.50 24.40 L 141.80 21.30 L 142.50 18.20 L 143.60 15.20 L 138.00 12.10 L 132.20 9.50 L 126.10 7.20 L 119.90 5.40 L 118.50 8.30 L 116.80 11.00 L 114.80 13.40 L 112.50 15.50 L 109.90 17.30 L 107.10 18.80 L 104.10 19.90 L 100.90 20.60 L 97.50 20.80 L 94.90 20.60 L 88.90 18.80 L 84.20 16.60 L 79.60 13.80 L 75.20 10.50 L 71.60 7.10 L 69.40 4.50 L 66.70 0.00 L 56.20 3.20 L 50.10 6.00 L 46.50 8.00 L 49.20 16.00 L 50.20 20.70 L 50.80 28.80 L 50.10 34.80 L 49.30 37.60 L 48.10 39.90 L 46.50 41.90 L 44.00 44.10 L 41.30 45.90 L 38.40 47.30 L 35.30 48.20 L 32.20 48.80 L 29.10 48.90 L 25.90 48.60 L 22.80 47.90 L 19.80 46.80 L 16.80 52.40 L 14.10 58.20 L 11.80 64.30 L 10.00 70.50 L 12.90 71.90 L 15.60 73.60 L 18.00 75.60 L 20.10 77.90 L 21.90 80.50 L 23.40 83.30 L 24.50 86.30 L 25.20 89.50 L 25.40 92.90 L 25.20 95.40 L 24.40 97.90 L 23.20 100.30 L 19.90 104.80 L 17.70 106.90 L 14.20 109.80 L 10.50 112.30 L 3.30 115.90 L 6.80 127.30 L 9.90 134.30 L 12.00 137.90 L 17.00 136.50 L 20.10 136.10 L 24.80 136.10 L 29.80 136.70 L 34.80 137.80 L 39.30 139.30 L 42.20 140.70 L 46.50 143.90 L 48.10 145.80 L 48.90 147.60 L 49.20 149.40 L 48.60 153.10 L 46.10 158.00 L 40.50 167.50 L 47.80 171.00 L 57.40 174.80 L 75.10 180.40 L 76.50 177.50 L 78.20 174.80 L 80.20 172.40 L 82.50 170.20 L 85.10 168.40 L 87.90 167.00 L 90.90 165.90 L 94.10 165.20 L 100.00 165.10 L 103.50 166.10 L 104.90 167.00 L 107.10 169.30 L 108.20 171.50 L 111.50 180.40 L 132.50 175.00 L 140.60 172.10 L 143.60 170.60 L 142.40 167.60 L 141.80 164.50 L 141.50 161.30 L 141.60 158.20 L 142.10 155.10 L 143.10 152.00 L 144.50 149.20 L 146.20 146.40 L 148.50 143.90 L 151.00 141.60 L 153.70 139.90 L 156.60 138.50 L 159.70 137.60 L 162.80 137.00 L 165.90 136.90 L 169.10 137.20 L 172.20 137.80 L 175.20 138.90 L 178.20 133.40 L 180.90 127.60 L 183.20 121.50 L 185.00 115.30 L 182.10 113.90 L 179.40 112.20 L 177.00 110.20 L 174.90 107.90 L 173.10 105.30 L 171.60 102.50 L 170.50 99.50 L 169.80 96.30 L 169.60 92.90 Z M 97.50 116.90 L 94.20 116.70 L 91.10 116.10 L 88.20 115.00 L 85.40 113.60 L 80.50 109.90 L 76.80 105.00 L 75.40 102.20 L 74.30 99.30 L 73.70 96.20 L 73.50 92.90 L 73.70 89.60 L 74.30 86.50 L 75.40 83.50 L 78.50 78.20 L 82.80 73.90 L 85.40 72.20 L 88.20 70.80 L 91.10 69.70 L 94.20 69.10 L 97.50 68.90 L 100.80 69.10 L 103.90 69.70 L 106.80 70.80 L 112.20 73.90 L 116.50 78.20 L 119.60 83.50 L 120.70 86.50 L 121.30 89.60 L 121.50 92.90 L 121.30 96.20 L 120.70 99.30 L 119.60 102.20 L 118.20 105.00 L 114.50 109.90 L 109.60 113.60 L 106.80 115.00 L 103.90 116.10 L 100.80 116.70 L 97.50 116.90 Z" fill="#ffbb3c" fill-rule="nonzero" group-id="1,2" id="形状" node-id="9" stroke="none" target-height="180.4" target-width="181.7" target-x="3.3" target-y="0"></path><path d="M 159.60 87.90 L 159.80 84.50 L 160.50 81.30 L 161.60 78.30 L 163.10 75.50 L 164.90 72.90 L 167.00 70.60 L 169.40 68.60 L 172.10 66.90 L 175.00 65.50 L 173.20 59.30 L 170.90 53.20 L 168.30 47.40 L 165.20 41.80 L 162.20 42.90 L 159.10 43.60 L 156.00 43.90 L 152.80 43.80 L 149.70 43.20 L 146.70 42.30 L 143.80 40.90 L 141.00 39.10 L 138.50 36.90 L 136.30 34.30 L 134.50 31.60 L 133.10 28.70 L 132.20 25.70 L 131.60 22.60 L 131.50 19.40 L 131.80 16.30 L 132.50 13.20 L 133.60 10.20 L 128.00 7.10 L 122.20 4.50 L 116.10 2.20 L 109.90 0.40 L 108.50 3.30 L 106.80 6.00 L 104.80 8.40 L 102.50 10.50 L 99.90 12.30 L 97.10 13.80 L 94.10 14.90 L 90.90 15.60 L 87.50 15.80 L 84.10 15.60 L 80.90 14.90 L 77.90 13.80 L 75.10 12.30 L 72.50 10.50 L 70.20 8.40 L 68.20 6.00 L 66.50 3.30 L 65.10 0.40 L 58.90 2.20 L 52.80 4.50 L 47.00 7.10 L 41.40 10.20 L 42.60 13.20 L 43.20 16.30 L 43.50 19.40 L 43.40 22.60 L 42.90 25.70 L 41.90 28.70 L 40.50 31.60 L 38.80 34.30 L 36.50 36.90 L 34.00 39.10 L 31.30 40.90 L 28.40 42.30 L 25.30 43.20 L 22.20 43.80 L 19.10 43.90 L 15.90 43.60 L 12.80 42.90 L 9.80 41.80 L 6.80 47.40 L 4.10 53.20 L 1.80 59.30 L 0.00 65.50 L 2.90 66.90 L 5.60 68.60 L 8.00 70.60 L 10.10 72.90 L 11.90 75.50 L 13.40 78.30 L 14.50 81.30 L 15.20 84.50 L 15.40 87.90 L 15.20 91.30 L 14.50 94.50 L 13.40 97.50 L 11.90 100.30 L 10.10 102.90 L 8.00 105.20 L 5.60 107.20 L 2.90 108.90 L 0.00 110.30 L 1.80 116.50 L 4.10 122.60 L 6.70 128.40 L 9.80 133.90 L 12.80 132.80 L 15.90 132.10 L 19.00 131.90 L 22.20 132.00 L 25.30 132.50 L 28.30 133.50 L 31.20 134.90 L 34.00 136.60 L 36.50 138.90 L 38.70 141.40 L 40.50 144.20 L 41.90 147.00 L 42.80 150.10 L 43.40 153.20 L 43.50 156.30 L 43.20 159.50 L 42.50 162.60 L 41.40 165.60 L 47.00 168.60 L 52.80 171.30 L 58.90 173.50 L 65.10 175.40 L 66.50 172.50 L 68.20 169.80 L 70.20 167.40 L 72.50 165.20 L 75.10 163.40 L 77.90 162.00 L 80.90 160.90 L 84.10 160.20 L 87.50 160.00 L 90.90 160.20 L 94.10 160.90 L 97.10 162.00 L 99.90 163.40 L 102.50 165.20 L 104.80 167.40 L 106.80 169.80 L 108.50 172.50 L 109.90 175.40 L 116.10 173.50 L 122.20 171.30 L 128.00 168.60 L 133.60 165.60 L 132.40 162.60 L 131.80 159.50 L 131.50 156.30 L 131.60 153.20 L 132.10 150.10 L 133.10 147.00 L 134.50 144.20 L 136.20 141.40 L 138.50 138.90 L 141.00 136.60 L 143.70 134.90 L 146.60 133.50 L 149.70 132.60 L 152.80 132.00 L 155.90 131.90 L 159.10 132.20 L 162.20 132.80 L 165.20 133.90 L 168.20 128.40 L 170.90 122.60 L 173.20 116.50 L 175.00 110.30 L 172.10 108.90 L 169.40 107.20 L 167.00 105.20 L 164.90 102.90 L 163.10 100.30 L 161.60 97.50 L 160.50 94.50 L 159.80 91.30 L 159.60 87.90 Z M 87.50 111.90 L 84.20 111.70 L 81.10 111.10 L 78.20 110.00 L 75.40 108.60 L 70.50 104.90 L 66.80 100.00 L 65.40 97.20 L 64.30 94.30 L 63.70 91.20 L 63.50 87.90 L 63.70 84.60 L 64.30 81.50 L 65.40 78.50 L 68.50 73.20 L 72.80 68.90 L 75.40 67.20 L 78.20 65.80 L 81.10 64.70 L 84.20 64.10 L 87.50 63.90 L 90.80 64.10 L 93.90 64.70 L 96.80 65.80 L 102.20 68.90 L 106.50 73.20 L 109.60 78.50 L 110.70 81.50 L 111.30 84.60 L 111.50 87.90 L 111.30 91.20 L 110.70 94.30 L 109.60 97.20 L 108.20 100.00 L 104.50 104.90 L 99.60 108.60 L 96.80 110.00 L 93.90 111.10 L 90.80 111.70 L 87.50 111.90 Z" fill="#ffca65" fill-rule="nonzero" group-id="1,2" id="形状" node-id="10" stroke="none" target-height="175" target-width="175" target-x="0" target-y="0.4"></path></g></g></svg>